# AST/ASF file generated using VICON BodyLanguage
# -----------------------------------------------
:version 1.10
:name VICON
:units
  mass 1.0
  length 0.45
  angle deg
:documentation
   .ast/.asf automatically generated from VICON data using
   VICON BodyBuilder and BodyLanguage model FoxedUp or BRILLIANT.MOD
:root
   order TX TY TZ RX RY RZ
   axis XYZ
   position 0 0 0  
   orientation 0 0 0 
:bonedata
  begin
     id 1 
     name lhipjoint
     direction 0.578396 -0.714046 0.394458 
     length 2.21935 
     axis 0 0 0  XYZ
  end
  begin
     id 2 
     name lfemur
     direction 0.34202 -0.939693 0  
     length 6.39105  
     axis 0 0 20  XYZ
    dof rx ry rz
    limits (-160.0 20.0)
           (-70.0 70.0)
           (-60.0 70.0)
  end
  begin
     id 3 
     name ltibia
     direction 0.34202 -0.939693 0   
     length 6.99037   
     axis 0 0 20   XYZ
    dof rx
    limits (-10.0 170.0)
  end
  begin
     id 4 
     name lfoot
     direction 0.0582372 -0.160005 0.985397   
     length 2.06111   
     axis -90 7.62852e-016 20   XYZ
    dof rx rz
    limits (-45.0 90.0)
           (-70.0 20.0)
  end
  begin
     id 5 
     name ltoes
     direction 1.53556e-011 -4.21875e-011 1   
     length 1.04074   
     axis -90 7.62852e-016 20   XYZ
    dof rx
    limits (-90.0 20.0)
  end
  begin
     id 6 
     name rhipjoint
     direction -0.558179 -0.726269 0.40121   
     length 2.182  
     axis 0 0 0  XYZ 
  end
  begin
     id 7 
     name rfemur
     direction -0.34202 -0.939693 0   
     length 6.51172   
     axis 0 0 -20   XYZ
    dof rx ry rz
    limits (-160.0 20.0)
           (-70.0 70.0)
           (-70.0 60.0)
  end
  begin
     id 8 
     name rtibia
     direction -0.34202 -0.939693 0   
     length 7.02607   
     axis 0 0 -20   XYZ
    dof rx
    limits (-10.0 170.0)
 end
 begin
     id 9 
     name rfoot
     direction -0.0788856 -0.216737 0.973038   
     length 1.96734  
     axis -90 -7.62852e-016 -20   XYZ
    dof rx rz
    limits (-45.0 90.0)
           (-20.0 70.0)
  end
  begin
     id 10 
     name rtoes
     direction -1.53567e-011 -4.21783e-011 1   
     length 0.990825   
     axis -90 -7.62852e-016 -20   XYZ
    dof rx
    limits (-90.0 20.0)
  end
  begin
     id 11 
     name lowerback
     direction 0.00668177 0.999323 -0.0361741   
     length 1.7655   
     axis 0 0 0   XYZ
    dof rx ry rz
    limits (-20.0 45.0)
           (-30.0 30.0)
           (-30.0 30.0)
  end
  begin
     id 12 
     name upperback
     direction -0.00222086 0.99851 0.0545167   
     length 1.74912   
     axis 0 0 0   XYZ
    dof rx ry rz
    limits (-20.0 45.0)
           (-30.0 30.0)
           (-30.0 30.0)
  end
  begin
     id 13 
     name thorax
     direction -0.00733971 0.997496 0.0703443   
     length 1.75715   
     axis 0 0 0   XYZ
    dof rx ry rz
    limits (-20.0 45.0)
           (-30.0 30.0)
           (-30.0 30.0)
  end
  begin
     id 14 
     name lowerneck
     direction 0.0279797 0.994795 0.0979765   
     length 1.46939   
     axis 0 0 0   XYZ
    dof rx ry rz
    limits (-20.0 45.0)
           (-30.0 30.0)
           (-30.0 30.0)
  end
  begin
     id 15 
     name upperneck
     direction 0.00339187 0.976776 -0.214238   
     length 1.48018   
     axis 0 0 0   XYZ
    dof rx ry rz
    limits (-20.0 45.0)
           (-30.0 30.0)
           (-30.0 30.0)
  end
  begin
     id 16
     name head
     direction -0.00263506 0.996603 -0.0823096  
     length 1.4976  
     axis 0 0 0   XYZ
    dof rx ry rz
    limits (-20.0 45.0)
           (-30.0 30.0)
           (-30.0 30.0)
  end
  begin
     id 17 
     name lclavicle
     direction 0.894044 0.44508 -0.0508781  
     length 3.03024  
     axis 0 0 0   XYZ
    dof ry rz
    limits (-20.0 10.0)
           (0.0 20.0)
  end
  begin
     id 18 
     name lhumerus
     direction 1 -4.48961e-011 -2.39475e-018   
     length 4.4661   
     axis 180 -30 -90   XYZ
    dof rx ry rz
    limits (-60.0 90.0)
           (-90.0 90.0)
           (-90.0 90.0)
  end
  begin
     id 19
     name lradius
     direction 1 -4.48961e-011 9.29328e-028   
     length 3.41414   
     axis 180 -30 -90   XYZ
    dof rx
    limits (-10.0 170.0)
  end
  begin
     id 20
     name lwrist
     direction 1 -4.48985e-011 1.53461e-026   
     length 1.70707   
     axis -1.09697e-014 90 90   XYZ
    dof ry
    limits (-180.0 0.0)
 end
  begin
     id 21 
     name lhand
     direction 1 -4.48966e-011 3.06923e-026   
     length 0.328298   
     axis -1.95843e-014 90 90   XYZ
    dof rx rz
    limits (-90.0 90.0)
           (-45.0 45.0)
  end
  begin
     id 22 
     name lfingers
     direction 1 -4.48893e-011 6.13845e-026   
     length 0.264682   
     axis -3.91686e-014 90 90   XYZ
    dof rx
    limits (0.0 90.0)
  end
  begin
     id 23
     name lthumb
     direction 0.707107 -6.34876e-011 0.707107   
     length 0.380032   
     axis -90 45 2.85299e-015   XYZ
    dof rx rz
    limits (-45.0 45.0)
           (-45.0 45.0)
  end
  begin
     id 24 
     name rclavicle
     direction -0.936955 0.347862 -0.0332887   
     length 3.26927  
     axis 0 0 0   XYZ 
    dof ry rz
    limits (-10.0 20.0)
           (-20.0 0.0)
  end
  begin
     id 25 
     name rhumerus
     direction -1 -4.4896e-011 1.78637e-018  
     length 4.40431   
     axis 180 30 90   XYZ
    dof rx ry rz
    limits (-90.0 60.0)
           (-90.0 90.0)
           (-90.0 90.0)
  end
  begin
     id 26 
     name rradius
     direction -1 -4.48955e-011 9.34036e-027   
     length 3.04688   
     axis 180 30 90   XYZ
    dof rx
    limits (-10.0 170.0)
  end
  begin
     id 27 
     name rwrist
     direction -1 -4.49011e-011 1.53461e-026   
     length 1.52344   
     axis -1.09697e-014 -90 -90   XYZ
    dof ry
    limits (-180.0 0.0)
  end
  begin
     id 28
     name rhand
     direction -1 -4.48834e-011 3.06923e-026   
     length 0.500489   
     axis -1.95843e-014 -90 -90   XYZ
    dof rx rz
    limits (-90.0 90.0)
           (-45.0 45.0)
  end
  begin
     id 29
     name rfingers
     direction -1 -4.48967e-011 6.13845e-026   
     length 0.403507   
     axis -3.91686e-014 -90 -90   XYZ
    dof rx
    limits (0.0 90.0)
  end
  begin
     id 30
     name rthumb
     direction -0.707107 -6.34826e-011 0.707107   
     length 0.579358   
     axis -90 -45 -2.85299e-015   XYZ
    dof rx rz
    limits (-45.0 45.0)
           (-45.0 45.0)
  end
:hierarchy
  begin
    root lhipjoint rhipjoint lowerback
    lhipjoint lfemur
    lfemur ltibia
    ltibia lfoot
    lfoot ltoes
    rhipjoint rfemur
    rfemur rtibia
    rtibia rfoot
    rfoot rtoes
    lowerback upperback
    upperback thorax
    thorax lowerneck lclavicle rclavicle
    lowerneck upperneck
    upperneck head
    lclavicle lhumerus
    lhumerus lradius
    lradius lwrist
    lwrist lhand lthumb
    lhand lfingers
    rclavicle rhumerus
    rhumerus rradius
    rradius rwrist
    rwrist rhand rthumb
    rhand rfingers
  end

#!OML:ASF H:\IndianDance\Patient Classification 1\Patient 1\Session 1\dancer.ASF
:FULLY-SPECIFIED
:DEGREES
217
root 1.13031 7.30203 12.6644 -177.768 -1.65891 -175.094
lowerback 36.6705 3.6022 3.40726
upperback -1.8174 6.20337 1.92713
thorax -20.9749 2.02479 -2.65654
lowerneck -23.8323 6.62766 4.8577
upperneck 14.6318 7.00219 1.36245
head 8.55421 3.70934 0.674928
rclavicle -3.97569e-016 1.35174e-014
rhumerus 10.4503 56.6541 -1.2525
rradius 103.72
rwrist 21.2432
rhand -54.618 66.307
rfingers 7.12502
rthumb -27.0147 38.2189
lclavicle -3.97569e-016 1.35174e-014
lhumerus 32.3285 -54.9586 -16.3313
lradius 107.168
lwrist -6.22733
lhand -59.0163 -15.239
lfingers 7.12502
lthumb -31.2149 12.1213
rfemur -117.089 -88.4133 48.0415
rtibia 147.194
rfoot -40.6007 20.256
rtoes -25.6788
lfemur -150.218 75.7973 -72.3891
ltibia 147.51
lfoot -33.5607 -26.3433
ltoes -10.4437
218
root 1.1139 7.13811 12.6596 -178.771 -1.76986 -174.916
lowerback 37.7601 3.74515 3.48574
upperback -1.68926 6.45005 2.13813
thorax -21.2855 2.07722 -2.61594
lowerneck -23.6243 6.90557 5.02295
upperneck 14.3049 7.38023 1.16572
head 8.42653 3.87267 0.623129
rclavicle -3.81667e-014 1.15295e-014
rhumerus 10.9907 56.4558 -1.20544
rradius 103.788
rwrist 21.1409
rhand -54.5992 66.1208
rfingers 7.12502
rthumb -26.9967 38.0299
lclavicle -3.81667e-014 1.15295e-014
lhumerus 32.24 -54.6399 -16.1786
lradius 107.125
lwrist -5.98122
lhand -58.9759 -14.8687
lfingers 7.12502
lthumb -31.1764 12.499
rfemur -98.6744 -92.2392 28.2289
rtibia 148.476
rfoot -42.1489 21.2451
rtoes -26.1297
lfemur -160.874 77.5876 -81.8536
ltibia 148.919
lfoot -34.8853 -27.1581
ltoes -11.1695
219
root 1.09631 6.9853 12.6533 -179.777 -1.88344 -174.686
lowerback 38.8041 3.88059 3.63601
upperback -1.56352 6.72094 2.36864
thorax -21.5622 2.13106 -2.60065
lowerneck -23.4276 7.17906 5.17479
upperneck 14.0225 7.76198 0.942174
head 8.31838 4.03531 0.566065
rclavicle -7.77248e-014 3.97569e-016
rhumerus 11.6048 56.233 -1.11893
rradius 103.902
rwrist 20.9944
rhand -54.5703 65.9103
rfingers 7.12502
rthumb -26.9691 37.8151
lclavicle -7.77248e-014 3.97569e-016
lhumerus 32.1343 -54.2899 -15.9715
lradius 107.064
lwrist -5.66771
lhand -58.9283 -14.5116
lfingers 7.12502
lthumb -31.131 12.8648
rfemur -105.953 -95.7474 34.1659
rtibia 149.64
rfoot -43.6188 22.0936
rtoes -26.5075
lfemur -173.777 78.9935 -93.4891
ltibia 150.23
lfoot -36.198 -28.0284
ltoes -11.654
220
root 1.07777 6.84443 12.6454 -180.775 -2.00501 -174.431
lowerback 39.7984 4.00833 3.82745
upperback -1.44187 7.00247 2.60813
thorax -21.8089 2.18401 -2.59962
lowerneck -23.2447 7.45446 5.34466
upperneck 13.7884 8.14766 0.68027
head 8.2334 4.19776 0.495548
rclavicle -5.66536e-014 -2.3059e-014
rhumerus 12.3032 55.9944 -0.992391
rradius 104.056
rwrist 20.7958
rhand -54.5318 65.6719
rfingers 7.12502
rthumb -26.9323 37.571
lclavicle -5.66536e-014 -2.3059e-014
lhumerus 32.0055 -53.9116 -15.7146
lradius 106.957
lwrist -5.47358
lhand -58.9346 -14.1474
lfingers 7.12502
lthumb -31.137 13.2278
rfemur -109.234 -99.0039 36.1447
rtibia 150.686
rfoot -44.9709 22.8255
rtoes -26.7919
lfemur -188.544 79.8977 -106.938
ltibia 151.437
lfoot -37.4497 -28.984
ltoes -11.8875
221
root 1.05904 6.71663 12.6362 -181.759 -2.14105 -174.169
lowerback 40.8112 4.12293 4.0469
upperback -1.39523 7.28336 2.82742
thorax -22.029 2.23493 -2.59948
lowerneck -23.0483 7.73861 5.54028
upperneck 13.5755 8.54051 0.403593
head 8.15751 4.36416 0.417353
rclavicle 6.65929e-014 3.81667e-014
rhumerus 13.0682 55.7384 -0.853603
rradius 104.233
rwrist 20.5702
rhand -54.4981 65.4338
rfingers 7.12502
rthumb -26.9 37.328
lclavicle 6.65929e-014 3.81667e-014
lhumerus 31.8464 -53.5031 -15.4041
lradius 106.791
lwrist -5.48079
lhand -59.0007 -13.7913
lfingers 7.12502
lthumb -31.2 13.5718
rfemur -111.843 -101.993 37.5024
rtibia 151.613
rfoot -46.1753 23.4948
rtoes -26.8966
lfemur -203.903 80.2609 -120.948
ltibia 152.53
lfoot -38.6082 -30.0115
ltoes -11.944
